# This file uses centimeters as units for non-parametric coordinates.

mtllib mesa.mtl
g default
v 0.142803 -0.093511 -0.038077
v 0.121476 -0.093511 -0.079935
v 0.088257 -0.093511 -0.113153
v 0.046400 -0.093511 -0.134480
v 0.000000 -0.093511 -0.141829
v -0.046400 -0.093511 -0.134480
v -0.088257 -0.093511 -0.113153
v -0.121476 -0.093511 -0.079934
v -0.142803 -0.093511 -0.038077
v -0.150152 -0.093511 0.008323
v -0.142803 -0.093511 0.054722
v -0.121476 -0.093511 0.096580
v -0.088257 -0.093511 0.129798
v -0.046400 -0.093511 0.151126
v -0.000000 -0.093511 0.158475
v 0.046400 -0.093511 0.151126
v 0.088257 -0.093511 0.129798
v 0.121476 -0.093511 0.096580
v 0.142803 -0.093511 0.054722
v 0.150152 -0.093511 0.008323
v 0.142803 0.093511 -0.038077
v 0.121476 0.093511 -0.079935
v 0.088257 0.093511 -0.113153
v 0.046400 0.093511 -0.134480
v 0.000000 0.093511 -0.141829
v -0.046400 0.093511 -0.134480
v -0.088257 0.093511 -0.113153
v -0.121476 0.093511 -0.079934
v -0.142803 0.093511 -0.038077
v -0.150152 0.093511 0.008323
v -0.142803 0.093511 0.054722
v -0.121476 0.093511 0.096580
v -0.088257 0.093511 0.129798
v -0.046400 0.093511 0.151126
v -0.000000 0.093511 0.158475
v 0.046400 0.093511 0.151126
v 0.088257 0.093511 0.129798
v 0.121476 0.093511 0.096580
v 0.142803 0.093511 0.054722
v 0.150152 0.093511 0.008323
v 0.000000 -0.093511 0.008323
v 0.000000 0.093511 0.008323
vt 0.960766 0.343075
vt 0.891951 0.208018
vt 0.784769 0.100836
vt 0.649712 0.032021
vt 0.500000 0.008309
vt 0.350288 0.032021
vt 0.215231 0.100836
vt 0.108049 0.208018
vt 0.039234 0.343075
vt 0.015522 0.492787
vt 0.039234 0.642498
vt 0.108049 0.777555
vt 0.215231 0.884737
vt 0.350288 0.953552
vt 0.500000 0.977264
vt 0.649712 0.953552
vt 0.784769 0.884737
vt 0.891951 0.777555
vt 0.960766 0.642498
vt 0.984478 0.492787
vt 0.005766 0.011967
vt 0.055189 0.011967
vt 0.104613 0.011967
vt 0.154036 0.011967
vt 0.203460 0.011967
vt 0.252883 0.011967
vt 0.302306 0.011967
vt 0.351730 0.011967
vt 0.401153 0.011967
vt 0.450577 0.011967
vt 0.500000 0.011967
vt 0.549423 0.011967
vt 0.598847 0.011967
vt 0.648270 0.011967
vt 0.697693 0.011967
vt 0.747117 0.011967
vt 0.796540 0.011967
vt 0.845964 0.011967
vt 0.895387 0.011967
vt 0.944810 0.011967
vt 0.994234 0.011967
vt 0.005766 0.988972
vt 0.055189 0.988972
vt 0.104613 0.988972
vt 0.154036 0.988972
vt 0.203460 0.988972
vt 0.252883 0.988972
vt 0.302306 0.988972
vt 0.351730 0.988972
vt 0.401153 0.988972
vt 0.450577 0.988972
vt 0.500000 0.988972
vt 0.549423 0.988972
vt 0.598847 0.988972
vt 0.648270 0.988972
vt 0.697693 0.988972
vt 0.747117 0.988972
vt 0.796540 0.988972
vt 0.845964 0.988972
vt 0.895387 0.988972
vt 0.944810 0.988972
vt 0.994234 0.988972
vt 0.648603 0.795466
vt 0.626409 0.751908
vt 0.591842 0.717341
vt 0.548284 0.695147
vt 0.500000 0.687500
vt 0.451716 0.695147
vt 0.408159 0.717341
vt 0.373591 0.751909
vt 0.351397 0.795466
vt 0.343750 0.843750
vt 0.351397 0.892034
vt 0.373591 0.935591
vt 0.408159 0.970159
vt 0.451716 0.992353
vt 0.500000 1.000000
vt 0.548284 0.992353
vt 0.591841 0.970159
vt 0.626409 0.935591
vt 0.648603 0.892034
vt 0.656250 0.843750
vt 0.500000 0.473407
vt 0.500000 0.837500
vn 0.951057 0.000000 -0.309016
vn 0.809017 0.000000 -0.587785
vn 0.809017 0.000000 -0.587785
vn 0.951057 0.000000 -0.309016
vn 0.587785 0.000000 -0.809017
vn 0.587785 0.000000 -0.809017
vn 0.309017 0.000000 -0.951057
vn 0.309017 0.000000 -0.951057
vn -0.000000 0.000000 -1.000000
vn -0.000000 0.000000 -1.000000
vn -0.309017 0.000000 -0.951056
vn -0.309017 0.000000 -0.951056
vn -0.587785 0.000000 -0.809017
vn -0.587785 0.000000 -0.809017
vn -0.809017 0.000000 -0.587785
vn -0.809017 0.000000 -0.587785
vn -0.951057 0.000000 -0.309017
vn -0.951057 0.000000 -0.309017
vn -1.000000 0.000000 0.000000
vn -1.000000 0.000000 0.000000
vn -0.951056 0.000000 0.309017
vn -0.951056 0.000000 0.309017
vn -0.809017 0.000000 0.587785
vn -0.809017 0.000000 0.587785
vn -0.587785 0.000000 0.809017
vn -0.587785 0.000000 0.809017
vn -0.309017 0.000000 0.951057
vn -0.309017 0.000000 0.951057
vn 0.000000 0.000000 1.000000
vn 0.000000 0.000000 1.000000
vn 0.309017 0.000000 0.951056
vn 0.309017 0.000000 0.951056
vn 0.587785 0.000000 0.809017
vn 0.587785 0.000000 0.809017
vn 0.809017 0.000000 0.587785
vn 0.809017 0.000000 0.587785
vn 0.951057 0.000000 0.309017
vn 0.951057 0.000000 0.309017
vn 1.000000 0.000000 0.000001
vn 1.000000 0.000000 0.000001
vn 0.000000 -1.000000 0.000000
vn 0.000000 -1.000000 0.000000
vn 0.000000 -1.000000 0.000000
vn 0.000000 -1.000000 0.000000
vn 0.000000 -1.000000 0.000000
vn 0.000000 -1.000000 0.000000
vn 0.000000 -1.000000 0.000000
vn 0.000000 -1.000000 0.000000
vn 0.000000 -1.000000 0.000000
vn 0.000000 -1.000000 0.000000
vn 0.000000 -1.000000 0.000000
vn 0.000000 -1.000000 0.000000
vn 0.000000 -1.000000 0.000000
vn 0.000000 -1.000000 0.000000
vn 0.000000 -1.000000 0.000000
vn 0.000000 -1.000000 0.000000
vn 0.000000 -1.000000 0.000000
vn 0.000000 -1.000000 0.000000
vn 0.000000 -1.000000 0.000000
vn 0.000000 -1.000000 0.000000
vn 0.000000 -1.000000 0.000000
vn 0.000000 1.000000 0.000000
vn 0.000000 1.000000 0.000000
vn 0.000000 1.000000 0.000000
vn 0.000000 1.000000 0.000000
vn 0.000000 1.000000 0.000000
vn 0.000000 1.000000 0.000000
vn 0.000000 1.000000 0.000000
vn 0.000000 1.000000 0.000000
vn 0.000000 1.000000 0.000000
vn 0.000000 1.000000 0.000000
vn 0.000000 1.000000 0.000000
vn 0.000000 1.000000 0.000000
vn 0.000000 1.000000 0.000000
vn 0.000000 1.000000 0.000000
vn 0.000000 1.000000 0.000000
vn 0.000000 1.000000 0.000000
vn 0.000000 1.000000 0.000000
vn 0.000000 1.000000 0.000000
vn 0.000000 1.000000 0.000000
vn 0.000000 1.000000 0.000000
vn 0.000000 1.000000 0.000000
s 1
g pCylinder1
usemtl lambert4SG
f 1/21/1 2/22/2 22/43/3 21/42/4
f 2/22/2 3/23/5 23/44/6 22/43/3
f 3/23/5 4/24/7 24/45/8 23/44/6
f 4/24/7 5/25/9 25/46/10 24/45/8
f 5/25/9 6/26/11 26/47/12 25/46/10
f 6/26/11 7/27/13 27/48/14 26/47/12
f 7/27/13 8/28/15 28/49/16 27/48/14
f 8/28/15 9/29/17 29/50/18 28/49/16
f 9/29/17 10/30/19 30/51/20 29/50/18
f 10/30/19 11/31/21 31/52/22 30/51/20
f 11/31/21 12/32/23 32/53/24 31/52/22
f 12/32/23 13/33/25 33/54/26 32/53/24
f 13/33/25 14/34/27 34/55/28 33/54/26
f 14/34/27 15/35/29 35/56/30 34/55/28
f 15/35/29 16/36/31 36/57/32 35/56/30
f 16/36/31 17/37/33 37/58/34 36/57/32
f 17/37/33 18/38/35 38/59/36 37/58/34
f 18/38/35 19/39/37 39/60/38 38/59/36
f 19/39/37 20/40/39 40/61/40 39/60/38
f 20/40/39 1/41/1 21/62/4 40/61/40
s 2
usemtl lambert5SG
f 2/2/41 1/1/42 41/83/43
f 3/3/44 2/2/41 41/83/43
f 4/4/45 3/3/44 41/83/43
f 5/5/46 4/4/45 41/83/43
f 6/6/47 5/5/46 41/83/43
f 7/7/48 6/6/47 41/83/43
f 8/8/49 7/7/48 41/83/43
f 9/9/50 8/8/49 41/83/43
f 10/10/51 9/9/50 41/83/43
f 11/11/52 10/10/51 41/83/43
f 12/12/53 11/11/52 41/83/43
f 13/13/54 12/12/53 41/83/43
f 14/14/55 13/13/54 41/83/43
f 15/15/56 14/14/55 41/83/43
f 16/16/57 15/15/56 41/83/43
f 17/17/58 16/16/57 41/83/43
f 18/18/59 17/17/58 41/83/43
f 19/19/60 18/18/59 41/83/43
f 20/20/61 19/19/60 41/83/43
f 1/1/42 20/20/61 41/83/43
s 3
usemtl initialShadingGroup
f 21/81/62 22/80/63 42/84/64
f 22/80/63 23/79/65 42/84/64
f 23/79/65 24/78/66 42/84/64
f 24/78/66 25/77/67 42/84/64
f 25/77/67 26/76/68 42/84/64
f 26/76/68 27/75/69 42/84/64
f 27/75/69 28/74/70 42/84/64
f 28/74/70 29/73/71 42/84/64
f 29/73/71 30/72/72 42/84/64
f 30/72/72 31/71/73 42/84/64
f 31/71/73 32/70/74 42/84/64
f 32/70/74 33/69/75 42/84/64
f 33/69/75 34/68/76 42/84/64
f 34/68/76 35/67/77 42/84/64
f 35/67/77 36/66/78 42/84/64
f 36/66/78 37/65/79 42/84/64
f 37/65/79 38/64/80 42/84/64
f 38/64/80 39/63/81 42/84/64
f 39/63/81 40/82/82 42/84/64
f 40/82/82 21/81/62 42/84/64
g default
v -0.282556 0.098696 0.291290
v 0.282556 0.098696 0.291290
v -0.282556 0.139067 0.291290
v 0.282556 0.139067 0.291290
v -0.282556 0.139067 -0.273822
v 0.282556 0.139067 -0.273822
v -0.282556 0.098696 -0.273822
v 0.282556 0.098696 -0.273822
vt 0.375000 0.000000
vt 0.625000 0.000000
vt 0.016069 0.019154
vt 0.983931 0.019154
vt 0.016069 0.987016
vt 0.983931 0.987016
vt 0.026477 0.019734
vt 0.973523 0.019734
vt 0.026477 0.966780
vt 0.973523 0.966780
vt 0.875000 0.000000
vt 0.875000 0.250000
vt 0.125000 0.000000
vt 0.125000 0.250000
vn 0.000000 0.000000 1.000000
vn 0.000000 0.000000 1.000000
vn 0.000000 0.000000 1.000000
vn 0.000000 0.000000 1.000000
vn 0.000000 1.000000 0.000000
vn 0.000000 1.000000 0.000000
vn 0.000000 1.000000 0.000000
vn 0.000000 1.000000 0.000000
vn 0.000000 0.000000 -1.000000
vn 0.000000 0.000000 -1.000000
vn 0.000000 0.000000 -1.000000
vn 0.000000 0.000000 -1.000000
vn 0.000000 -1.000000 0.000000
vn 0.000000 -1.000000 0.000000
vn 0.000000 -1.000000 0.000000
vn 0.000000 -1.000000 0.000000
vn 1.000000 0.000000 0.000000
vn 1.000000 0.000000 0.000000
vn 1.000000 0.000000 0.000000
vn 1.000000 0.000000 0.000000
vn -1.000000 0.000000 0.000000
vn -1.000000 0.000000 0.000000
vn -1.000000 0.000000 0.000000
vn -1.000000 0.000000 0.000000
s off
g pCube1
usemtl lambert3SG
f 43/85/83 44/86/84 46/88/85 45/87/86
f 45/87/87 46/88/88 48/90/89 47/89/90
f 47/89/91 48/90/92 50/92/93 49/91/94
f 49/91/95 50/92/96 44/94/97 43/93/98
f 44/86/99 50/95/100 48/96/101 46/88/102
f 49/97/103 43/85/104 45/87/105 47/98/106
