# This file uses centimeters as units for non-parametric coordinates.

mtllib mesa2.mtl
g default
v 1.164152 -0.418485 0.577124
v 1.130669 -0.418485 0.499914
v 1.078517 -0.418485 0.438640
v 1.012802 -0.418485 0.399300
v 0.939957 -0.418485 0.385744
v 0.867112 -0.418485 0.399300
v 0.801397 -0.418485 0.438640
v 0.749245 -0.418485 0.499914
v 0.715762 -0.418485 0.577124
v 0.704224 -0.418485 0.662711
v 0.715762 -0.418485 0.748298
v 0.749245 -0.418485 0.825508
v 0.801397 -0.418485 0.886782
v 0.867112 -0.418485 0.926122
v 0.939957 -0.418485 0.939678
v 1.012802 -0.418485 0.926122
v 1.078517 -0.418485 0.886782
v 1.130669 -0.418485 0.825508
v 1.164152 -0.418485 0.748298
v 1.175690 -0.418485 0.662711
v 1.164152 0.154834 0.577124
v 1.130669 0.154834 0.499914
v 1.078517 0.154834 0.438640
v 1.012802 0.154834 0.399300
v 0.939957 0.154834 0.385744
v 0.867112 0.154834 0.399300
v 0.801397 0.154834 0.438640
v 0.749245 0.154834 0.499914
v 0.715762 0.154834 0.577124
v 0.704224 0.154834 0.662711
v 0.715762 0.154834 0.748298
v 0.749245 0.154834 0.825508
v 0.801397 0.154834 0.886782
v 0.867112 0.154834 0.926122
v 0.939957 0.154834 0.939678
v 1.012802 0.154834 0.926122
v 1.078517 0.154834 0.886782
v 1.130669 0.154834 0.825508
v 1.164152 0.154834 0.748298
v 1.175690 0.154834 0.662711
v 0.939957 -0.418485 0.662711
v 0.939957 0.154834 0.662711
vt 0.958276 0.347003
vt 0.889833 0.212676
vt 0.783230 0.106073
vt 0.648903 0.037630
vt 0.500000 0.014046
vt 0.351097 0.037630
vt 0.216770 0.106073
vt 0.110167 0.212676
vt 0.041724 0.347004
vt 0.018140 0.495906
vt 0.041724 0.644809
vt 0.110167 0.779137
vt 0.216770 0.885740
vt 0.351097 0.954183
vt 0.500000 0.977767
vt 0.648903 0.954183
vt 0.783230 0.885740
vt 0.889833 0.779137
vt 0.958276 0.644809
vt 0.981860 0.495906
vt 0.024891 0.016355
vt 0.072402 0.016355
vt 0.119913 0.016355
vt 0.167424 0.016355
vt 0.214935 0.016355
vt 0.262445 0.016355
vt 0.309956 0.016355
vt 0.357467 0.016355
vt 0.404978 0.016355
vt 0.452489 0.016355
vt 0.500000 0.016355
vt 0.547511 0.016355
vt 0.595022 0.016355
vt 0.642533 0.016355
vt 0.690043 0.016355
vt 0.737554 0.016355
vt 0.785065 0.016355
vt 0.832576 0.016355
vt 0.880087 0.016355
vt 0.927598 0.016355
vt 0.975109 0.016355
vt 0.024891 0.984585
vt 0.072402 0.984585
vt 0.119913 0.984585
vt 0.167424 0.984585
vt 0.214935 0.984585
vt 0.262445 0.984585
vt 0.309956 0.984585
vt 0.357467 0.984585
vt 0.404978 0.984585
vt 0.452489 0.984585
vt 0.500000 0.984585
vt 0.547511 0.984585
vt 0.595022 0.984585
vt 0.642533 0.984585
vt 0.690043 0.984585
vt 0.737554 0.984585
vt 0.785065 0.984585
vt 0.832576 0.984585
vt 0.880087 0.984585
vt 0.927598 0.984585
vt 0.975109 0.984585
vt 0.648603 0.795466
vt 0.626409 0.751908
vt 0.591842 0.717341
vt 0.548284 0.695147
vt 0.500000 0.687500
vt 0.451716 0.695147
vt 0.408159 0.717341
vt 0.373591 0.751909
vt 0.351397 0.795466
vt 0.343750 0.843750
vt 0.351397 0.892034
vt 0.373591 0.935591
vt 0.408159 0.970159
vt 0.451716 0.992353
vt 0.500000 1.000000
vt 0.548284 0.992353
vt 0.591841 0.970159
vt 0.626409 0.935591
vt 0.648603 0.892034
vt 0.656250 0.843750
vt 0.500000 0.476632
vt 0.500000 0.837500
vn 0.963824 0.000000 -0.266541
vn 0.850520 0.000000 -0.525942
vn 0.850520 0.000000 -0.525942
vn 0.963824 0.000000 -0.266541
vn 0.649249 0.000000 -0.760576
vn 0.649249 0.000000 -0.760576
vn 0.356649 0.000000 -0.934238
vn 0.356649 0.000000 -0.934238
vn -0.000000 0.000000 -1.000000
vn -0.000000 0.000000 -1.000000
vn -0.356650 0.000000 -0.934238
vn -0.356650 0.000000 -0.934238
vn -0.649249 0.000000 -0.760576
vn -0.649249 0.000000 -0.760576
vn -0.850520 0.000000 -0.525942
vn -0.850520 0.000000 -0.525942
vn -0.963823 0.000000 -0.266542
vn -0.963823 0.000000 -0.266542
vn -1.000000 0.000000 0.000000
vn -1.000000 0.000000 0.000000
vn -0.963823 0.000000 0.266542
vn -0.963823 0.000000 0.266542
vn -0.850520 0.000000 0.525942
vn -0.850520 0.000000 0.525942
vn -0.649249 0.000000 0.760576
vn -0.649249 0.000000 0.760576
vn -0.356649 0.000000 0.934238
vn -0.356649 0.000000 0.934238
vn 0.000000 0.000000 1.000000
vn 0.000000 0.000000 1.000000
vn 0.356649 0.000000 0.934238
vn 0.356649 0.000000 0.934238
vn 0.649249 0.000000 0.760576
vn 0.649249 0.000000 0.760576
vn 0.850520 0.000000 0.525942
vn 0.850520 0.000000 0.525942
vn 0.963823 0.000000 0.266542
vn 0.963823 0.000000 0.266542
vn 1.000000 0.000000 0.000001
vn 1.000000 0.000000 0.000001
vn 0.000000 -1.000000 0.000000
vn 0.000000 -1.000000 0.000000
vn 0.000000 -1.000000 0.000000
vn 0.000000 -1.000000 0.000000
vn 0.000000 -1.000000 0.000000
vn 0.000000 -1.000000 0.000000
vn 0.000000 -1.000000 0.000000
vn 0.000000 -1.000000 0.000000
vn 0.000000 -1.000000 0.000000
vn 0.000000 -1.000000 0.000000
vn 0.000000 -1.000000 0.000000
vn 0.000000 -1.000000 0.000000
vn 0.000000 -1.000000 0.000000
vn 0.000000 -1.000000 0.000000
vn 0.000000 -1.000000 0.000000
vn 0.000000 -1.000000 0.000000
vn 0.000000 -1.000000 0.000000
vn 0.000000 -1.000000 0.000000
vn 0.000000 -1.000000 0.000000
vn 0.000000 -1.000000 0.000000
vn 0.000000 -1.000000 0.000000
vn 0.000000 1.000000 0.000000
vn 0.000000 1.000000 0.000000
vn 0.000000 1.000000 0.000000
vn 0.000000 1.000000 0.000000
vn 0.000000 1.000000 0.000000
vn 0.000000 1.000000 0.000000
vn 0.000000 1.000000 0.000000
vn 0.000000 1.000000 0.000000
vn 0.000000 1.000000 0.000000
vn 0.000000 1.000000 0.000000
vn 0.000000 1.000000 0.000000
vn 0.000000 1.000000 0.000000
vn 0.000000 1.000000 0.000000
vn 0.000000 1.000000 0.000000
vn 0.000000 1.000000 0.000000
vn 0.000000 1.000000 0.000000
vn 0.000000 1.000000 0.000000
vn 0.000000 1.000000 0.000000
vn 0.000000 1.000000 0.000000
vn 0.000000 1.000000 0.000000
vn 0.000000 1.000000 0.000000
s 1
g pCylinder1
usemtl lambert5SG
f 1/21/1 2/22/2 22/43/3 21/42/4
f 2/22/2 3/23/5 23/44/6 22/43/3
f 3/23/5 4/24/7 24/45/8 23/44/6
f 4/24/7 5/25/9 25/46/10 24/45/8
f 5/25/9 6/26/11 26/47/12 25/46/10
f 6/26/11 7/27/13 27/48/14 26/47/12
f 7/27/13 8/28/15 28/49/16 27/48/14
f 8/28/15 9/29/17 29/50/18 28/49/16
f 9/29/17 10/30/19 30/51/20 29/50/18
f 10/30/19 11/31/21 31/52/22 30/51/20
f 11/31/21 12/32/23 32/53/24 31/52/22
f 12/32/23 13/33/25 33/54/26 32/53/24
f 13/33/25 14/34/27 34/55/28 33/54/26
f 14/34/27 15/35/29 35/56/30 34/55/28
f 15/35/29 16/36/31 36/57/32 35/56/30
f 16/36/31 17/37/33 37/58/34 36/57/32
f 17/37/33 18/38/35 38/59/36 37/58/34
f 18/38/35 19/39/37 39/60/38 38/59/36
f 19/39/37 20/40/39 40/61/40 39/60/38
f 20/40/39 1/41/1 21/62/4 40/61/40
s 2
f 2/2/41 1/1/42 41/83/43
f 3/3/44 2/2/41 41/83/43
f 4/4/45 3/3/44 41/83/43
f 5/5/46 4/4/45 41/83/43
f 6/6/47 5/5/46 41/83/43
f 7/7/48 6/6/47 41/83/43
f 8/8/49 7/7/48 41/83/43
f 9/9/50 8/8/49 41/83/43
f 10/10/51 9/9/50 41/83/43
f 11/11/52 10/10/51 41/83/43
f 12/12/53 11/11/52 41/83/43
f 13/13/54 12/12/53 41/83/43
f 14/14/55 13/13/54 41/83/43
f 15/15/56 14/14/55 41/83/43
f 16/16/57 15/15/56 41/83/43
f 17/17/58 16/16/57 41/83/43
f 18/18/59 17/17/58 41/83/43
f 19/19/60 18/18/59 41/83/43
f 20/20/61 19/19/60 41/83/43
f 1/1/42 20/20/61 41/83/43
s 3
f 21/81/62 22/80/63 42/84/64
f 22/80/63 23/79/65 42/84/64
f 23/79/65 24/78/66 42/84/64
f 24/78/66 25/77/67 42/84/64
f 25/77/67 26/76/68 42/84/64
f 26/76/68 27/75/69 42/84/64
f 27/75/69 28/74/70 42/84/64
f 28/74/70 29/73/71 42/84/64
f 29/73/71 30/72/72 42/84/64
f 30/72/72 31/71/73 42/84/64
f 31/71/73 32/70/74 42/84/64
f 32/70/74 33/69/75 42/84/64
f 33/69/75 34/68/76 42/84/64
f 34/68/76 35/67/77 42/84/64
f 35/67/77 36/66/78 42/84/64
f 36/66/78 37/65/79 42/84/64
f 37/65/79 38/64/80 42/84/64
f 38/64/80 39/63/81 42/84/64
f 39/63/81 40/82/82 42/84/64
f 40/82/82 21/81/62 42/84/64
g default
v -1.402256 0.125652 0.973396
v 1.402256 0.125652 0.973396
v -1.402256 0.194353 0.973396
v 1.402256 0.194353 0.973396
v -1.402256 0.194353 -0.996715
v 1.402256 0.194353 -0.996715
v -1.402256 0.125652 -0.996715
v 1.402256 0.125652 -0.996715
vt 0.375000 0.000000
vt 0.625000 0.000000
vt -0.005002 -0.011963
vt 1.005002 -0.011963
vt -0.005002 0.998041
vt 1.005002 0.998041
vt 0.000701 0.001493
vt 0.994275 0.001493
vt 0.000701 0.995067
vt 0.994275 0.995067
vt 0.875000 0.000000
vt 0.875000 0.250000
vt 0.125000 0.000000
vt 0.125000 0.250000
vn 0.000000 0.000000 1.000000
vn 0.000000 0.000000 1.000000
vn 0.000000 0.000000 1.000000
vn 0.000000 0.000000 1.000000
vn 0.000000 1.000000 0.000000
vn 0.000000 1.000000 0.000000
vn 0.000000 1.000000 0.000000
vn 0.000000 1.000000 0.000000
vn 0.000000 0.000000 -1.000000
vn 0.000000 0.000000 -1.000000
vn 0.000000 0.000000 -1.000000
vn 0.000000 0.000000 -1.000000
vn 0.000000 -1.000000 0.000000
vn 0.000000 -1.000000 0.000000
vn 0.000000 -1.000000 0.000000
vn 0.000000 -1.000000 0.000000
vn 1.000000 0.000000 0.000000
vn 1.000000 0.000000 0.000000
vn 1.000000 0.000000 0.000000
vn 1.000000 0.000000 0.000000
vn -1.000000 0.000000 0.000000
vn -1.000000 0.000000 0.000000
vn -1.000000 0.000000 0.000000
vn -1.000000 0.000000 0.000000
s off
g pCube1
usemtl lambert3SG
f 43/85/83 44/86/84 46/88/85 45/87/86
usemtl lambert2SG
f 45/87/87 46/88/88 48/90/89 47/89/90
usemtl lambert3SG
f 47/89/91 48/90/92 50/92/93 49/91/94
f 49/91/95 50/92/96 44/94/97 43/93/98
f 44/86/99 50/95/100 48/96/101 46/88/102
f 49/97/103 43/85/104 45/87/105 47/98/106
g default
v -0.762487 -0.418485 0.577124
v -0.795971 -0.418485 0.499914
v -0.848122 -0.418485 0.438640
v -0.913837 -0.418485 0.399300
v -0.986683 -0.418485 0.385744
v -1.059528 -0.418485 0.399300
v -1.125243 -0.418485 0.438640
v -1.177394 -0.418485 0.499914
v -1.210878 -0.418485 0.577124
v -1.222415 -0.418485 0.662711
v -1.210878 -0.418485 0.748298
v -1.177394 -0.418485 0.825508
v -1.125243 -0.418485 0.886782
v -1.059528 -0.418485 0.926122
v -0.986683 -0.418485 0.939678
v -0.913837 -0.418485 0.926122
v -0.848122 -0.418485 0.886782
v -0.795971 -0.418485 0.825508
v -0.762487 -0.418485 0.748298
v -0.750950 -0.418485 0.662711
v -0.762487 0.154834 0.577124
v -0.795971 0.154834 0.499914
v -0.848122 0.154834 0.438640
v -0.913837 0.154834 0.399300
v -0.986683 0.154834 0.385744
v -1.059528 0.154834 0.399300
v -1.125243 0.154834 0.438640
v -1.177394 0.154834 0.499914
v -1.210878 0.154834 0.577124
v -1.222415 0.154834 0.662711
v -1.210878 0.154834 0.748298
v -1.177394 0.154834 0.825508
v -1.125243 0.154834 0.886782
v -1.059528 0.154834 0.926122
v -0.986683 0.154834 0.939678
v -0.913837 0.154834 0.926122
v -0.848122 0.154834 0.886782
v -0.795971 0.154834 0.825508
v -0.762487 0.154834 0.748298
v -0.750950 0.154834 0.662711
v -0.986683 -0.418485 0.662711
v -0.986683 0.154834 0.662711
vt 0.957297 0.354989
vt 0.889000 0.220949
vt 0.782625 0.114574
vt 0.648585 0.046277
vt 0.500000 0.022743
vt 0.351415 0.046277
vt 0.217375 0.114574
vt 0.111000 0.220949
vt 0.042703 0.354989
vt 0.019169 0.503574
vt 0.042703 0.652159
vt 0.111000 0.786199
vt 0.217375 0.892574
vt 0.351415 0.960871
vt 0.500000 0.984405
vt 0.648585 0.960871
vt 0.782625 0.892574
vt 0.889000 0.786199
vt 0.957297 0.652159
vt 0.980831 0.503574
vt 0.012595 0.016200
vt 0.061336 0.016200
vt 0.110076 0.016200
vt 0.158817 0.016200
vt 0.207557 0.016200
vt 0.256298 0.016200
vt 0.305038 0.016200
vt 0.353778 0.016200
vt 0.402519 0.016200
vt 0.451259 0.016200
vt 0.500000 0.016200
vt 0.548740 0.016200
vt 0.597481 0.016200
vt 0.646221 0.016200
vt 0.694962 0.016200
vt 0.743702 0.016200
vt 0.792443 0.016200
vt 0.841183 0.016200
vt 0.889924 0.016200
vt 0.938664 0.016200
vt 0.987405 0.016200
vt 0.012595 0.984740
vt 0.061336 0.984740
vt 0.110076 0.984740
vt 0.158817 0.984740
vt 0.207557 0.984740
vt 0.256298 0.984740
vt 0.305038 0.984740
vt 0.353778 0.984740
vt 0.402519 0.984740
vt 0.451259 0.984740
vt 0.500000 0.984740
vt 0.548740 0.984740
vt 0.597481 0.984740
vt 0.646221 0.984740
vt 0.694962 0.984740
vt 0.743702 0.984740
vt 0.792443 0.984740
vt 0.841183 0.984740
vt 0.889924 0.984740
vt 0.938664 0.984740
vt 0.987405 0.984740
vt 0.648603 0.795466
vt 0.626409 0.751908
vt 0.591842 0.717341
vt 0.548284 0.695147
vt 0.500000 0.687500
vt 0.451716 0.695147
vt 0.408159 0.717341
vt 0.373591 0.751909
vt 0.351397 0.795466
vt 0.343750 0.843750
vt 0.351397 0.892034
vt 0.373591 0.935591
vt 0.408159 0.970159
vt 0.451716 0.992353
vt 0.500000 1.000000
vt 0.548284 0.992353
vt 0.591841 0.970159
vt 0.626409 0.935591
vt 0.648603 0.892034
vt 0.656250 0.843750
vt 0.500000 0.484341
vt 0.500000 0.837500
vn 0.963824 0.000000 -0.266541
vn 0.850520 0.000000 -0.525942
vn 0.850520 0.000000 -0.525942
vn 0.963824 0.000000 -0.266541
vn 0.649249 0.000000 -0.760576
vn 0.649249 0.000000 -0.760576
vn 0.356649 0.000000 -0.934238
vn 0.356649 0.000000 -0.934238
vn -0.000000 0.000000 -1.000000
vn -0.000000 0.000000 -1.000000
vn -0.356650 0.000000 -0.934238
vn -0.356650 0.000000 -0.934238
vn -0.649249 0.000000 -0.760576
vn -0.649249 0.000000 -0.760576
vn -0.850520 0.000000 -0.525942
vn -0.850520 0.000000 -0.525942
vn -0.963823 0.000000 -0.266542
vn -0.963823 0.000000 -0.266542
vn -1.000000 0.000000 0.000000
vn -1.000000 0.000000 0.000000
vn -0.963823 0.000000 0.266542
vn -0.963823 0.000000 0.266542
vn -0.850520 0.000000 0.525942
vn -0.850520 0.000000 0.525942
vn -0.649249 0.000000 0.760576
vn -0.649249 0.000000 0.760576
vn -0.356649 0.000000 0.934238
vn -0.356649 0.000000 0.934238
vn 0.000000 0.000000 1.000000
vn 0.000000 0.000000 1.000000
vn 0.356649 0.000000 0.934238
vn 0.356649 0.000000 0.934238
vn 0.649249 0.000000 0.760576
vn 0.649249 0.000000 0.760576
vn 0.850520 0.000000 0.525942
vn 0.850520 0.000000 0.525942
vn 0.963823 0.000000 0.266542
vn 0.963823 0.000000 0.266542
vn 1.000000 0.000000 0.000001
vn 1.000000 0.000000 0.000001
vn 0.000000 -1.000000 0.000000
vn 0.000000 -1.000000 0.000000
vn 0.000000 -1.000000 0.000000
vn 0.000000 -1.000000 0.000000
vn 0.000000 -1.000000 0.000000
vn 0.000000 -1.000000 0.000000
vn 0.000000 -1.000000 0.000000
vn 0.000000 -1.000000 0.000000
vn 0.000000 -1.000000 0.000000
vn 0.000000 -1.000000 0.000000
vn 0.000000 -1.000000 0.000000
vn 0.000000 -1.000000 0.000000
vn 0.000000 -1.000000 0.000000
vn 0.000000 -1.000000 0.000000
vn 0.000000 -1.000000 0.000000
vn 0.000000 -1.000000 0.000000
vn 0.000000 -1.000000 0.000000
vn 0.000000 -1.000000 0.000000
vn 0.000000 -1.000000 0.000000
vn 0.000000 -1.000000 0.000000
vn 0.000000 -1.000000 0.000000
vn 0.000000 1.000000 0.000000
vn 0.000000 1.000000 0.000000
vn 0.000000 1.000000 0.000000
vn 0.000000 1.000000 0.000000
vn 0.000000 1.000000 0.000000
vn 0.000000 1.000000 0.000000
vn 0.000000 1.000000 0.000000
vn 0.000000 1.000000 0.000000
vn 0.000000 1.000000 0.000000
vn 0.000000 1.000000 0.000000
vn 0.000000 1.000000 0.000000
vn 0.000000 1.000000 0.000000
vn 0.000000 1.000000 0.000000
vn 0.000000 1.000000 0.000000
vn 0.000000 1.000000 0.000000
vn 0.000000 1.000000 0.000000
vn 0.000000 1.000000 0.000000
vn 0.000000 1.000000 0.000000
vn 0.000000 1.000000 0.000000
vn 0.000000 1.000000 0.000000
vn 0.000000 1.000000 0.000000
s 1
g pasted__pCylinder1 group
usemtl lambert4SG
f 51/119/107 52/120/108 72/141/109 71/140/110
f 52/120/108 53/121/111 73/142/112 72/141/109
f 53/121/111 54/122/113 74/143/114 73/142/112
f 54/122/113 55/123/115 75/144/116 74/143/114
f 55/123/115 56/124/117 76/145/118 75/144/116
f 56/124/117 57/125/119 77/146/120 76/145/118
f 57/125/119 58/126/121 78/147/122 77/146/120
f 58/126/121 59/127/123 79/148/124 78/147/122
f 59/127/123 60/128/125 80/149/126 79/148/124
f 60/128/125 61/129/127 81/150/128 80/149/126
f 61/129/127 62/130/129 82/151/130 81/150/128
f 62/130/129 63/131/131 83/152/132 82/151/130
f 63/131/131 64/132/133 84/153/134 83/152/132
f 64/132/133 65/133/135 85/154/136 84/153/134
f 65/133/135 66/134/137 86/155/138 85/154/136
f 66/134/137 67/135/139 87/156/140 86/155/138
f 67/135/139 68/136/141 88/157/142 87/156/140
f 68/136/141 69/137/143 89/158/144 88/157/142
f 69/137/143 70/138/145 90/159/146 89/158/144
f 70/138/145 51/139/107 71/160/110 90/159/146
s 2
f 52/100/147 51/99/148 91/181/149
f 53/101/150 52/100/147 91/181/149
f 54/102/151 53/101/150 91/181/149
f 55/103/152 54/102/151 91/181/149
f 56/104/153 55/103/152 91/181/149
f 57/105/154 56/104/153 91/181/149
f 58/106/155 57/105/154 91/181/149
f 59/107/156 58/106/155 91/181/149
f 60/108/157 59/107/156 91/181/149
f 61/109/158 60/108/157 91/181/149
f 62/110/159 61/109/158 91/181/149
f 63/111/160 62/110/159 91/181/149
f 64/112/161 63/111/160 91/181/149
f 65/113/162 64/112/161 91/181/149
f 66/114/163 65/113/162 91/181/149
f 67/115/164 66/114/163 91/181/149
f 68/116/165 67/115/164 91/181/149
f 69/117/166 68/116/165 91/181/149
f 70/118/167 69/117/166 91/181/149
f 51/99/148 70/118/167 91/181/149
s 3
f 71/179/168 72/178/169 92/182/170
f 72/178/169 73/177/171 92/182/170
f 73/177/171 74/176/172 92/182/170
f 74/176/172 75/175/173 92/182/170
f 75/175/173 76/174/174 92/182/170
f 76/174/174 77/173/175 92/182/170
f 77/173/175 78/172/176 92/182/170
f 78/172/176 79/171/177 92/182/170
f 79/171/177 80/170/178 92/182/170
f 80/170/178 81/169/179 92/182/170
f 81/169/179 82/168/180 92/182/170
f 82/168/180 83/167/181 92/182/170
f 83/167/181 84/166/182 92/182/170
f 84/166/182 85/165/183 92/182/170
f 85/165/183 86/164/184 92/182/170
f 86/164/184 87/163/185 92/182/170
f 87/163/185 88/162/186 92/182/170
f 88/162/186 89/161/187 92/182/170
f 89/161/187 90/180/188 92/182/170
f 90/180/188 71/179/168 92/182/170
