# This file uses centimeters as units for non-parametric coordinates.

mtllib Jarron.mtl
g default
v 0.000000 -0.639571 0.006052
v -1.844731 -0.157104 0.904157
v -1.844731 -0.157104 -0.892033
v 0.000000 -0.157104 -2.154213
v 1.844731 -0.157104 -0.892033
v 1.844731 -0.157104 0.904157
v 0.000000 -0.157104 2.142068
v -1.699088 1.834760 -0.819221
v -1.699088 1.834760 0.831326
v 0.000000 3.363935 0.006052
v 1.699088 1.834760 -0.819221
v 0.000000 1.834760 -1.984300
v 1.699088 1.834760 0.831326
v 0.000000 1.834760 1.996425
v -0.194183 3.363935 -1.013405
v -1.043728 3.363935 0.200236
v 1.019457 3.363935 -0.188111
v 0.194183 3.363935 1.049780
vt 0.540000 1.005900
vt 1.268600 0.895500
vt -0.188500 0.895500
vt -0.199200 0.452100
vt 1.280300 0.484400
vt 0.554700 -0.175800
vt -0.200200 0.472200
vt 1.280300 0.471700
vt 1.286100 0.461400
vt 0.572300 -0.159200
vt 1.288100 0.460000
vt 0.498000 -0.185500
vt 0.000000 1.000000
vt 0.489300 1.884300
vt 1.000000 1.000000
vt 0.500000 1.905800
vt 0.500000 1.914100
vt 0.510700 1.962900
vt -0.201200 0.481900
vt 1.290000 0.481400
vt 0.484400 -0.224600
vt -0.201200 0.480000
vt 1.284200 0.445300
vt 0.553700 -0.140600
vt 0.540000 -0.184600
vt 1.268600 0.895500
vt -0.188500 0.895500
vt 1.268600 0.895500
vt -0.188500 0.895500
vt -0.188500 0.895500
vt -0.188500 0.895500
vt 1.268600 0.895500
vt 1.268600 0.895500
vt 1.280300 0.471700
vt -0.188500 0.895500
vt -0.188500 0.895500
vt 1.280300 0.471700
vt -0.200200 0.472200
vt 1.280300 0.471700
vt 1.280300 0.471700
vt -0.200200 0.472200
vt -0.200200 0.472200
vt 0.000000 1.000000
vt 1.000000 1.000000
vt 0.000000 1.000000
vt 1.000000 1.000000
vt 1.268600 0.895500
vt -0.188500 0.895500
vt 0.000000 1.000000
vt 1.000000 1.000000
vt 1.268600 0.895500
vt 1.280300 0.471700
vt -0.188500 0.895500
vt -0.188500 0.895500
vt 1.280300 0.471700
vt -0.200200 0.472200
vt 1.268600 0.895500
vt -0.188500 0.895500
vt 1.268600 0.895500
vt 1.280300 0.471700
vt -0.188500 0.895500
vt -0.188500 0.895500
vt 1.280300 0.471700
vt -0.200200 0.472200
vt 1.268600 0.895500
vt -0.188500 0.895500
vt -0.200200 0.472200
vt -0.188500 0.895500
vt 1.280300 0.471700
vt 1.280300 0.471700
vt -0.188500 0.895500
vt 1.268600 0.895500
vt -0.200200 0.472200
vt 1.280300 0.471700
vn -0.388106 -0.921615 0.000000
vn -0.388106 -0.921615 0.000000
vn -0.388106 -0.921615 0.000000
vn 0.225499 -0.916796 -0.329599
vn 0.225499 -0.916796 -0.329599
vn 0.225499 -0.916796 -0.329599
vn 0.223504 -0.916017 0.333106
vn 0.223504 -0.916017 0.333106
vn 0.223504 -0.916017 0.333106
vn -0.668981 0.743279 -0.000000
vn -0.668981 0.743279 -0.000000
vn -0.668981 0.743279 -0.000000
vn 0.563875 0.076997 -0.822263
vn 0.563875 0.076997 -0.822263
vn 0.563875 0.076997 -0.822263
vn 0.563102 0.075800 -0.822903
vn 0.563102 0.075800 -0.822903
vn 0.563102 0.075800 -0.822903
vn 0.555611 0.076501 0.827916
vn 0.555611 0.076501 0.827916
vn 0.555611 0.076501 0.827916
vn 0.564303 0.065000 0.823005
vn 0.564303 0.065000 0.823005
vn 0.564303 0.065000 0.823005
vn -0.996898 0.078700 -0.000000
vn -0.996898 0.078700 -0.000000
vn -0.996898 0.078700 -0.000000
vn -0.996898 0.078700 -0.000000
vn -0.996898 0.078700 -0.000000
vn -0.996898 0.078700 -0.000000
vn 0.385488 0.731677 -0.562182
vn 0.385488 0.731677 -0.562182
vn 0.385488 0.731677 -0.562182
vn 0.385488 0.731677 0.562182
vn 0.385488 0.731677 0.562182
vn 0.385488 0.731677 0.562182
vn -0.806376 -0.176395 -0.564484
vn -0.806376 -0.176395 -0.564484
vn -0.806376 -0.176395 -0.564484
vn 0.553706 -0.174102 -0.814309
vn 0.553706 -0.174102 -0.814309
vn 0.553706 -0.174102 -0.814309
vn -0.556823 -0.178007 0.811333
vn -0.556823 -0.178007 0.811333
vn -0.556823 -0.178007 0.811333
vn -0.225499 -0.916796 -0.329599
vn -0.225499 -0.916796 -0.329599
vn -0.225499 -0.916796 -0.329599
vn 0.819106 -0.175601 0.546104
vn 0.819106 -0.175601 0.546104
vn 0.819106 -0.175601 0.546104
vn -0.562987 0.076898 -0.822881
vn -0.562987 0.076898 -0.822881
vn -0.562987 0.076898 -0.822881
vn -0.563884 0.075698 -0.822377
vn -0.563884 0.075698 -0.822377
vn -0.563884 0.075698 -0.822377
vn -0.223504 -0.916017 0.333106
vn -0.223504 -0.916017 0.333106
vn -0.223504 -0.916017 0.333106
vn -0.385488 0.731677 -0.562182
vn -0.385488 0.731677 -0.562182
vn -0.385488 0.731677 -0.562182
vn -0.556002 0.065400 0.828604
vn -0.556002 0.065400 0.828604
vn -0.556002 0.065400 0.828604
vn -0.563875 0.076997 0.822263
vn -0.563875 0.076997 0.822263
vn -0.563875 0.076997 0.822263
vn 0.388106 -0.921615 0.000000
vn 0.388106 -0.921615 0.000000
vn 0.388106 -0.921615 0.000000
vn -0.385488 0.731677 0.562182
vn -0.385488 0.731677 0.562182
vn -0.385488 0.731677 0.562182
vn 0.996898 0.078700 0.000000
vn 0.996898 0.078700 0.000000
vn 0.996898 0.078700 0.000000
vn 0.996898 0.078700 0.000000
vn 0.996898 0.078700 0.000000
vn 0.996898 0.078700 0.000000
vn 0.668981 0.743279 0.000000
vn 0.668981 0.743279 0.000000
vn 0.668981 0.743279 0.000000
s off
g zelda_pot:pot_base
usemtl lambert3SG
f 1/1/1 2/2/2 3/3/3
f 1/1/4 4/26/5 5/27/6
f 1/1/7 6/28/8 7/29/9
f 8/4/10 9/5/11 10/6/12
f 11/7/13 5/30/14 12/8/15
f 12/8/16 5/31/17 4/32/18
f 6/33/19 13/34/20 7/35/21
f 7/36/22 13/37/23 14/38/24
f 2/2/25 9/39/26 3/3/27
f 3/3/28 9/40/29 8/41/30
f 11/7/31 12/9/32 10/10/33
f 14/42/34 13/11/35 10/12/36
f 15/13/37 1/14/38 16/15/39
f 17/43/40 1/16/41 15/44/42
f 16/45/43 1/17/44 18/46/45
f 1/1/46 3/47/47 4/48/48
f 18/49/49 1/18/50 17/50/51
f 3/51/52 8/52/53 4/53/54
f 4/54/55 8/55/56 12/56/57
f 1/1/58 7/57/59 2/58/60
f 12/19/61 8/20/62 10/21/63
f 7/59/64 14/60/65 2/61/66
f 2/62/67 14/63/68 9/64/69
f 1/1/70 5/65/71 6/66/72
f 9/22/73 14/23/74 10/24/75
f 13/67/76 6/68/77 11/69/78
f 11/70/79 6/71/80 5/72/81
f 13/73/82 11/74/83 10/25/84
g default
v 0.242724 3.363935 1.316794
v 1.310722 3.363935 -0.236672
v -1.310722 3.363935 0.273067
v -0.242724 3.363935 -1.304669
vt 0.000000 -0.002000
vt 0.000000 1.000000
vt 1.000000 -0.002000
vt 1.000000 1.000000
vn 0.000000 1.000000 0.000000
vn 0.000000 1.000000 0.000000
vn 0.000000 1.000000 0.000000
vn 0.000000 1.000000 0.000000
vn 0.000000 1.000000 0.000000
vn 0.000000 1.000000 0.000000
s off
g zelda_pot:pot_top
usemtl lambert2SG
f 19/75/85 20/76/86 21/77/87
f 21/77/88 20/76/89 22/78/90
