# This file uses centimeters as units for non-parametric coordinates.

mtllib Cofreabaj.mtl
g default
v -0.959090 -0.094222 -0.143835
v -0.959090 -0.094222 1.339051
v -0.959090 -1.131558 1.339051
v -0.959090 -1.131558 -0.143835
v 0.959090 -0.094222 1.339051
v 0.959090 -0.094222 -0.143835
v 0.959090 -1.131558 1.339051
v 0.959090 -1.131558 -0.143835
v 0.845140 -0.094222 -0.029886
v 0.959090 -0.094222 1.339051
v 0.845139 -0.094222 1.223581
v -0.959090 -1.057491 -0.143835
v 0.959090 -1.057491 -0.143835
v 0.959090 -1.057491 1.339051
v -0.959090 -1.057491 1.339051
v -0.845139 -0.094222 -0.029886
v 0.959090 -0.094222 -0.143835
v -0.959090 -0.094222 1.339051
v -0.959090 -0.094222 -0.143835
v -0.845139 -0.094222 -0.028364
v -0.845139 -0.094222 1.225093
vt 1.108263 -0.003354
vt 0.019084 1.169053
vt 1.049775 1.177813
vt -0.009272 -0.052382
vt 0.025174 0.100040
vt 2.033914 1.107331
vt 2.147822 -0.007704
vt -0.026891 1.141308
vt -0.043515 1.102209
vt 2.066316 0.082757
vt -0.034397 0.013563
vt 2.061005 1.072279
vt 1.892578 -0.085938
vt -0.055664 0.085938
vt 2.054688 0.085938
vt 0.108398 -0.085938
vt -0.051758 2.084961
vt 2.051758 -0.084961
vt -0.051758 -0.084961
vt 2.051758 2.084961
vt -0.001953 0.080078
vt 1.882812 -0.080078
vt 0.117188 -0.080078
vt 2.001953 0.080078
vt 1.892578 -0.085938
vt -0.055664 0.085938
vt 2.054688 0.085938
vt 0.108398 -0.085938
vn 0.000000 0.000000 -1.000000
vn 0.000000 0.000000 -1.000000
vn 0.000000 0.000000 -1.000000
vn 0.000000 0.000000 -1.000000
vn 0.000000 0.000000 -1.000000
vn 0.000000 0.000000 -1.000000
vn -1.000000 0.000000 -0.000000
vn -1.000000 0.000000 -0.000000
vn -1.000000 0.000000 -0.000000
vn -1.000000 0.000000 -0.000000
vn -1.000000 0.000000 -0.000000
vn -1.000000 0.000000 -0.000000
vn 1.000000 0.000000 0.000000
vn 1.000000 0.000000 0.000000
vn 1.000000 0.000000 0.000000
vn 1.000000 0.000000 0.000000
vn 1.000000 0.000000 0.000000
vn 1.000000 0.000000 0.000000
vn 0.000000 1.000000 0.000000
vn 0.000000 1.000000 0.000000
vn 0.000000 1.000000 0.000000
vn 0.000000 1.000000 -0.000000
vn 0.000000 1.000000 -0.000000
vn 0.000000 1.000000 -0.000000
vn 0.000000 1.000000 -0.000000
vn 0.000000 1.000000 -0.000000
vn 0.000000 1.000000 -0.000000
vn 0.000000 1.000000 0.000000
vn 0.000000 1.000000 0.000000
vn 0.000000 1.000000 0.000000
vn 0.000000 1.000000 -0.000001
vn 0.000000 1.000000 -0.000001
vn 0.000000 1.000000 -0.000001
vn 0.000000 1.000000 0.000000
vn 0.000000 1.000000 0.000000
vn 0.000000 1.000000 0.000000
vn 0.000000 1.000000 0.000000
vn 0.000000 1.000000 0.000000
vn 0.000000 1.000000 0.000000
vn 0.000000 1.000000 0.000000
vn 0.000000 1.000000 0.000000
vn 0.000000 1.000000 0.000000
s off
g Big_Treasure_Chest:front1wood1
usemtl lambert10SG
f 1/1/1 8/2/2 4/3/3
usemtl lambert9SG
f 1/1/4 6/4/5 8/2/6
usemtl lambert14SG
f 1/5/7 3/6/8 2/7/9
usemtl lambert13SG
f 1/5/10 4/8/11 3/6/12
usemtl lambert14SG
f 7/9/13 6/10/14 5/11/15
usemtl lambert13SG
f 7/9/16 8/12/17 6/10/18
usemtl lambert3SG
f 9/13/19 10/14/20 17/15/21
f 9/13/22 11/16/23 10/14/24
f 15/17/25 13/18/26 12/19/27
f 15/17/28 14/20/29 13/18/30
f 17/21/31 16/22/32 9/23/33
f 17/21/34 19/24/35 16/22/36
f 21/25/37 19/26/38 18/27/39
f 21/25/40 20/28/41 19/26/42
g default
v 0.959090 -0.094222 1.339051
v -0.959090 -0.094222 1.339051
v 0.959090 -1.131558 1.339051
v -0.959090 -1.131558 1.339051
v -0.845139 -0.094222 1.225093
v 0.845139 -0.094222 1.225093
v 0.959090 -0.094222 1.339051
v -0.959090 -0.094222 1.339051
vt 0.015582 0.024818
vt 2.045452 1.165442
vt 2.133136 0.004474
vt 0.015582 1.165442
vt -0.051758 -0.041504
vt 1.926758 0.041504
vt 0.073242 0.041504
vt 2.051758 -0.041504
vn -0.000000 0.000000 1.000000
vn -0.000000 0.000000 1.000000
vn -0.000000 0.000000 1.000000
vn -0.000000 0.000000 1.000000
vn -0.000000 0.000000 1.000000
vn -0.000000 0.000000 1.000000
vn 0.000000 1.000000 0.000000
vn 0.000000 1.000000 0.000000
vn 0.000000 1.000000 0.000000
vn 0.000000 1.000000 0.000002
vn 0.000000 1.000000 0.000002
vn 0.000000 1.000000 0.000002
s off
g Big_Treasure_Chest:front1
usemtl lambert18SG
f 23/29/43 24/30/44 22/31/45
usemtl lambert17SG
f 23/29/46 25/32/47 24/30/48
usemtl lambert2SG
f 29/33/49 27/34/50 26/35/51
f 29/33/52 28/36/53 27/34/54
