# This file uses centimeters as units for non-parametric coordinates.

mtllib Brazo1.mtl
g default
v -0.046055 0.180369 0.234992
v -0.056545 0.336046 0.196807
v -0.079624 0.287370 0.383537
v -0.103961 0.285692 0.488440
v 0.022762 0.288209 0.430953
v -0.067035 0.205126 0.489279
v -0.028011 0.338563 0.487601
v 0.007656 0.229044 0.429274
v 0.043323 0.284852 0.488440
v 0.013111 0.206804 0.489699
v -0.065357 0.330591 0.375983
v -0.106479 0.281076 0.317237
v 0.034931 0.258836 0.359618
v 0.007236 0.229463 0.423819
v 0.013111 0.330591 0.375564
v -0.029270 0.322198 0.424658
v 0.021503 0.288629 0.424659
v -0.064098 0.229883 0.383116
v -0.053608 0.367936 0.234992
v -0.136272 0.292825 0.199325
v -0.067035 0.357446 0.279052
v 0.034512 0.204286 0.208556
v 0.043324 0.297021 0.207298
v 0.035351 0.239115 0.298774
v -0.027591 0.207643 0.378081
v -0.167743 0.202609 0.210235
v 0.008496 0.357026 0.278632
v -0.029270 0.391016 0.414168
v -0.029690 0.303735 0.634885
v 0.012692 0.276040 0.638242
v -0.071651 0.276880 0.636145
v -0.056965 0.229463 0.631948
v 0.001781 0.231981 0.638243
vt 0.255035 0.506112
vt 0.170492 0.325821
vt 0.384396 0.239241
vt 0.267258 0.688439
vt 0.254016 0.683346
vt 0.169474 0.380825
vt 0.386433 0.369621
vt 0.383377 0.509167
vt 0.264202 0.635472
vt 0.252998 0.633435
vt 0.384396 0.760759
vt 0.387451 0.654825
vt 0.690991 0.652788
vt 0.690991 0.652788
vt 0.690991 0.614082
vt 0.677749 0.405271
vt 0.677749 0.405271
vt 0.683861 0.503056
vt 0.686916 0.353323
vt 0.686916 0.353323
vt 1.625036 0.491851
vt 1.501787 0.391011
vt 1.640315 0.457219
vt 1.629110 0.586580
vt 1.590404 0.741405
vt 1.724858 0.672141
vt 1.624017 0.687420
vt 1.726895 0.582506
vt 1.725876 0.707792
vt 1.640315 0.495926
vt 1.463081 0.741405
vt 0.730069 0.871997
vt 0.947675 0.551024
vt 0.561055 0.825344
vt 0.911760 0.172201
vt 0.915985 0.567819
vt 0.484998 0.319624
vt 0.180772 0.183397
vt 0.415280 0.500638
vt 0.905422 0.164736
vt 0.812464 0.069564
vt 0.189223 0.711511
vt 0.958239 0.733904
vt 0.563168 0.823478
vt 0.041335 0.970902
vt 0.191336 0.711511
vn -0.114665 0.993368 0.008537
vn -0.971581 0.214895 0.099248
vn -0.966623 0.244954 0.075086
vn 0.919351 0.291260 -0.264501
vn 0.924928 0.259189 0.278081
vn -0.676217 -0.726594 -0.121617
vn -0.553134 -0.832538 0.030381
vn 0.012527 0.997882 0.063827
vn 0.448321 -0.851900 -0.270691
vn 0.716024 -0.683605 0.141403
vn 0.958440 0.277752 0.065169
vn 0.567201 -0.822862 0.034371
vn 0.916203 0.346623 0.201061
vn 0.569613 -0.802096 0.179397
vn -0.481128 -0.857677 0.181399
vn 0.008055 0.973110 0.230201
vn -0.920273 0.330983 0.208683
vn -0.830908 0.442590 0.337205
vn -0.809464 -0.191722 0.554987
vn -0.063937 -0.931182 0.358904
vn 0.966197 -0.241692 0.089716
vn 0.881633 0.404436 0.243217
vn 0.898274 -0.411933 0.153022
vn -0.077450 0.941199 -0.328857
vn -0.832790 0.428120 0.350962
vn -0.685882 0.723018 0.082525
vn 0.773700 -0.593423 0.221896
vn 0.945641 0.325060 -0.009935
vn -0.821970 -0.326625 0.466563
vn 0.021042 -0.975683 0.218175
vn -0.016207 0.768051 -0.640183
vn 0.690514 0.715714 -0.104613
vn 0.008136 0.859758 0.510636
vn -0.049166 -0.013751 0.998696
vn -0.049166 -0.013751 0.998696
vn -0.049166 -0.013751 0.998696
vn -0.049166 -0.013751 0.998696
vn -0.049166 -0.013751 0.998696
vn 0.020330 -0.183196 -0.982866
vn 0.020330 -0.183196 -0.982866
vn 0.020330 -0.183196 -0.982866
vn 0.020330 -0.183196 -0.982866
vn 0.020330 -0.183196 -0.982866
vn 0.020330 -0.183196 -0.982866
s 1
g polySurface1 pasted__ob_0601D8F8 group
usemtl lambert5SG
f 16/1/1 3/2/2 4/3/3
f 5/4/4 17/5/5 16/1/1
f 18/6/6 6/7/7 4/3/3
f 4/3/3 7/8/8 16/1/1
f 8/9/9 6/7/7 18/6/6
usemtl pasted__ob_0601D8F8SG2
f 8/9/9 14/10/10 17/5/5
usemtl lambert5SG
f 8/9/9 17/5/5 5/4/4
f 4/3/3 3/2/2 18/6/6
usemtl pasted__ob_0601D8F8SG2
f 18/6/6 14/10/10 8/9/9
usemtl lambert5SG
f 16/1/1 7/8/8 9/11/11
f 16/1/1 9/11/11 5/4/4
f 10/12/12 9/11/11 30/13/13
f 10/12/12 30/14/13 33/15/14
f 10/12/12 33/15/14 32/16/15
f 10/12/12 32/17/15 6/7/7
f 7/8/8 29/18/16 30/14/13
f 7/8/8 30/13/13 9/11/11
f 6/7/7 32/16/15 31/19/17
f 6/7/7 31/20/17 4/3/3
f 8/9/9 10/12/12 6/7/7
f 5/4/4 9/11/11 10/12/12
f 5/4/4 10/12/12 8/9/9
f 7/8/8 4/3/3 31/20/17
f 7/8/8 31/19/17 29/18/16
f 11/21/18 12/22/19 3/23/2
f 25/24/20 13/25/21 14/26/10
f 15/27/22 16/28/1 17/29/5
f 15/27/22 11/21/18 16/28/1
f 3/23/2 16/28/1 11/21/18
f 14/26/10 18/30/6 25/24/20
f 13/25/21 15/27/22 17/29/5
f 18/30/6 3/23/2 12/22/19
f 15/27/22 13/25/21 24/31/23
f 24/31/23 13/25/21 25/24/20
f 12/22/19 25/24/20 18/30/6
f 17/29/5 14/26/10 13/25/21
usemtl lambert32SG
f 19/32/24 20/33/25 21/34/26
f 22/35/27 23/36/28 24/37/23
f 25/38/20 12/39/19 26/40/29
f 24/37/23 1/41/30 22/35/27
usemtl lambert42SG
f 26/40/29 12/39/19 11/42/18
usemtl lambert32SG
f 26/40/29 11/42/18 21/34/26
f 23/36/28 2/43/31 19/32/24
f 20/33/25 19/32/24 2/43/31
f 19/32/24 27/44/32 23/36/28
f 27/44/32 24/37/23 23/36/28
f 26/40/29 1/41/30 25/38/20
f 25/38/20 1/41/30 24/37/23
f 21/34/26 20/33/25 26/40/29
f 27/44/32 21/34/26 28/45/33
f 21/34/26 11/42/18 28/45/33
f 28/45/33 15/46/22 27/44/32
f 15/46/22 28/45/33 11/42/18
f 24/37/23 27/44/32 15/46/22
f 21/34/26 27/44/32 19/32/24
s off
usemtl lambert5SG
f 30/14/34 29/18/35 31/19/36 32/16/37 33/15/38
usemtl lambert44SG
f 26/40/39 20/33/40 2/43/41 23/36/42 22/35/43 1/41/44
