# This file uses centimeters as units for non-parametric coordinates.

mtllib Brazo2.mtl
g default
v 0.034512 0.204287 -0.245496
v -0.103961 0.286112 -0.525380
v 0.021504 0.289049 -0.461598
v 0.022763 0.288629 -0.467891
v -0.067035 0.205546 -0.526638
v -0.028011 0.338983 -0.524959
v 0.013112 0.207224 -0.526638
v 0.007657 0.229045 -0.466633
v 0.007237 0.229884 -0.460758
v 0.043324 0.285272 -0.525378
v -0.071651 0.277300 -0.673503
v 0.034932 0.259256 -0.396557
v -0.029270 0.322618 -0.462017
v 0.013112 0.330591 -0.412502
v -0.065357 0.331010 -0.412922
v -0.079623 0.287790 -0.420475
v -0.064098 0.230303 -0.420055
v -0.106479 0.281496 -0.354176
v 0.035351 0.239534 -0.336132
v -0.067035 0.357866 -0.315991
v -0.136272 0.292825 -0.236264
v -0.053607 0.368356 -0.266896
v 0.043324 0.297022 -0.244237
v -0.167743 0.202609 -0.247174
v -0.027591 0.207643 -0.415020
v -0.046054 0.180369 -0.271931
v -0.056545 0.336046 -0.233746
v 0.008496 0.357026 -0.315571
v -0.029270 0.391435 -0.451107
v 0.001782 0.231982 -0.675601
v 0.012692 0.276460 -0.675182
v -0.029689 0.304156 -0.672244
v -0.056964 0.229883 -0.668888
vt 0.406220 0.198395
vt 0.158810 0.298537
vt 0.256596 0.507069
vt 0.255418 0.712066
vt 0.270734 0.717956
vt 0.408576 0.349198
vt 0.157632 0.362157
vt 0.405042 0.510603
vt 0.409755 0.679078
vt 0.267199 0.656693
vt 0.253062 0.654337
vt 0.760841 0.631952
vt 0.760841 0.676721
vt 0.406220 0.801605
vt 0.760841 0.631952
vt 0.745525 0.390433
vt 0.752594 0.503534
vt 0.752594 0.503534
vt 0.756129 0.330347
vt 0.745525 0.390433
vt 0.618286 0.699106
vt 0.462771 0.779220
vt 0.507540 0.600142
vt 0.620642 0.740341
vt 0.620642 0.595430
vt 0.501650 0.716778
vt 0.502828 0.490575
vt 0.521678 0.450518
vt 0.520500 0.495287
vt 0.360273 0.373939
vt 0.316681 0.779220
vt 0.527344 0.095703
vt 0.207031 0.320312
vt 0.371094 0.058594
vt 0.589844 0.507812
vt 0.232422 0.306641
vt 0.236328 0.628906
vt 0.242188 0.634766
vt 0.646484 0.361328
vt 0.839844 0.619141
vt 0.318359 0.712891
vt 0.199219 0.169922
vt 0.525391 0.097656
vt 0.955078 -0.021484
vt 0.833984 0.189453
vt 0.832031 0.189453
vn -0.965799 0.253215 -0.055801
vn -0.971629 0.214541 -0.099549
vn -0.154689 0.987901 -0.011110
vn 0.924753 0.261140 -0.276837
vn 0.845218 0.454028 0.281895
vn -0.545486 -0.838017 -0.013187
vn -0.704897 -0.698811 0.121588
vn -0.014988 0.994690 -0.101822
vn 0.541856 -0.839985 -0.028596
vn 0.614831 -0.712853 0.337378
vn 0.717908 -0.682894 -0.135145
vn 0.593135 -0.779965 -0.199615
vn 0.896204 0.392728 -0.206357
vn 0.949346 0.306117 -0.070951
vn -0.568628 -0.781669 -0.256233
vn 0.012832 0.964984 -0.261995
vn -0.850937 0.315959 -0.419615
vn 0.966224 -0.241436 -0.090110
vn -0.064761 -0.929881 -0.362114
vn 0.881297 0.405686 -0.242350
vn -0.808463 0.425800 -0.406303
vn -0.904356 0.115179 -0.410943
vn 0.898876 -0.410601 -0.153064
vn -0.593953 0.803100 -0.047437
vn -0.833660 0.427667 -0.349446
vn -0.083303 0.938865 0.334055
vn 0.946354 0.322907 0.012025
vn 0.773114 -0.593524 -0.223660
vn -0.785660 -0.396869 -0.474588
vn 0.022127 -0.975546 -0.218681
vn -0.012094 0.716599 0.697381
vn 0.690655 0.716330 0.099335
vn 0.012699 0.860048 -0.510055
vn 0.020328 -0.183195 0.982866
vn 0.020328 -0.183195 0.982866
vn 0.020328 -0.183195 0.982866
vn 0.020328 -0.183195 0.982866
vn 0.020328 -0.183195 0.982866
vn 0.020328 -0.183195 0.982866
vn -0.093631 0.005478 -0.995592
vn -0.093631 0.005478 -0.995592
vn -0.093631 0.005478 -0.995592
vn -0.093631 0.005478 -0.995592
s 1
g polySurface12 polySurface10 polySurface7 polySurface4 polySurface2 pasted__ob_0601D8F8 group
usemtl lambert7SG
f 2/1/1 16/2/2 13/3/3
usemtl lambert8SG
f 13/3/3 3/4/4 4/5/5
usemtl lambert7SG
f 2/1/1 5/6/6 17/7/7
f 13/3/3 6/8/8 2/1/1
f 17/7/7 5/6/6 7/9/9
f 17/7/7 7/9/9 8/10/10
f 4/5/5 3/4/4 9/11/11
f 4/5/5 9/11/11 8/10/10
f 17/7/7 16/2/2 2/1/1
f 8/10/10 9/11/11 17/7/7
f 4/5/5 6/8/8 13/3/3
f 30/12/12 31/13/13 10/14/14
f 30/15/12 10/14/14 7/9/9
f 5/6/6 33/16/15 30/12/12
f 5/6/6 30/15/12 7/9/9
f 10/14/14 31/13/13 32/17/16
f 10/14/14 32/18/16 6/8/8
f 2/1/1 11/19/17 33/20/15
f 2/1/1 33/20/15 5/6/6
f 8/10/10 7/9/9 10/14/14
f 8/10/10 10/14/14 4/5/5
f 32/18/16 11/19/17 2/1/1
f 32/18/16 2/1/1 6/8/8
f 4/5/5 10/14/14 6/8/8
f 32/17/16 33/16/15 11/19/17
f 9/21/11 12/22/18 25/23/19
f 3/24/4 13/25/3 14/26/20
f 13/25/3 15/27/21 14/26/20
f 15/27/21 13/25/3 16/28/2
f 25/23/19 17/29/7 9/21/11
f 3/24/4 14/26/20 12/22/18
f 18/30/22 16/28/2 17/29/7
f 25/23/19 12/22/18 19/31/23
f 19/31/23 12/22/18 14/26/20
f 17/29/7 25/23/19 18/30/22
f 12/22/18 9/21/11 3/24/4
f 16/28/2 18/30/22 15/27/21
usemtl lambert33SG
f 20/32/24 21/33/25 22/34/26
f 19/35/23 23/36/27 1/37/28
f 24/38/29 18/39/22 25/40/19
f 1/37/28 26/41/30 19/35/23
f 24/38/29 21/33/25 20/32/24
f 22/34/26 27/42/31 23/36/27
f 27/42/31 22/34/26 21/33/25
f 23/36/27 28/43/32 22/34/26
f 23/36/27 19/35/23 28/43/32
f 25/40/19 26/41/30 24/38/29
f 19/35/23 26/41/30 25/40/19
f 20/32/24 18/39/22 24/38/29
f 29/44/33 20/32/24 28/43/32
f 29/44/33 15/45/21 20/32/24
f 28/43/32 14/46/20 29/44/33
f 15/45/21 29/44/33 14/46/20
f 14/46/20 28/43/32 19/35/23
f 22/34/26 28/43/32 20/32/24
f 20/32/24 15/45/21 18/39/22
s off
usemtl lambert46SG
f 27/42/34 21/33/35 24/38/36 26/41/37 1/37/38 23/36/39
usemtl lambert7SG
f 31/13/40 30/12/41 33/16/42 32/17/43
