# This file uses centimeters as units for non-parametric coordinates.

mtllib Mano1.mtl
g default
v -0.142146 0.246186 0.801681
v -0.125362 0.232758 0.805876
v -0.107318 0.248284 0.805037
v -0.121585 0.254159 0.741675
v -0.093471 0.187020 0.740417
v -0.151378 0.211357 0.732445
v -0.110256 0.196671 0.669921
v -0.056964 0.195412 0.688385
v -0.049831 0.291923 0.858329
v -0.051929 0.265068 0.861686
v 0.029057 0.289826 0.848258
v -0.116969 0.287308 0.791610
v 0.048779 0.325073 0.786155
v 0.038288 0.359901 0.785316
v 0.023182 0.309128 0.849517
v -0.111095 0.331787 0.796226
v 0.057591 0.306610 0.713562
v 0.017727 0.242409 0.634255
v 0.029476 0.341858 0.696777
v -0.103122 0.325492 0.690903
v -0.062839 0.224785 0.632995
v -0.076267 0.292344 0.632156
v -0.000316 0.307449 0.633834
vt 0.550409 0.548747
vt 0.611428 0.547850
vt 0.670653 0.528108
vt 0.550409 0.548747
vt 0.670653 0.528108
vt 0.536052 0.305569
vt 0.670653 0.528108
vt 0.611428 0.547850
vt 0.625786 0.273264
vt 0.424782 0.298390
vt 0.625786 0.273264
vt 0.611428 0.547850
vt 0.611428 0.547850
vt 0.550409 0.548747
vt 0.424782 0.298390
vt 0.625786 0.273264
vt 0.424782 0.298390
vt 0.475033 0.026496
vt 0.670653 0.528108
vt 0.675139 0.044443
vt 0.536052 0.305569
vt 0.536052 0.305569
vt 0.475033 0.026496
vt 0.424782 0.298390
vt 0.574637 0.970496
vt 0.580919 0.980367
vt 0.406835 0.938192
vt 0.696676 0.810770
vt 0.346714 0.782055
vt 0.369147 0.781158
vt 0.419398 0.942679
vt 0.685907 0.822435
vt 0.331459 0.728215
vt 0.329664 0.675272
vt 0.352098 0.723728
vt 0.307231 0.599896
vt 0.326075 0.607074
vt 0.440037 0.305569
vt 0.693086 0.572975
vt 0.475033 0.026496
vt 0.675139 0.044443
vt 0.625786 0.273264
vt 0.625786 0.273264
vt 0.675139 0.044443
vt 0.670653 0.528108
vt 0.536052 0.305569
vt 0.424782 0.298390
vt 0.550409 0.548747
vt 0.602455 0.571181
vt 0.341330 0.516443
vt 0.512721 0.348641
vt 0.388888 0.651941
vt 0.622196 0.203272
vt 0.664371 0.594512
vt 0.361968 0.561310
vt 0.638349 0.558618
vt 0.414014 0.577462
vt 0.350303 0.262496
vt 0.330562 0.485036
vt 0.440037 0.370177
vt 0.622196 0.360306
vt 0.692189 0.686937
vt 0.451702 0.529006
vt 0.330562 0.485036
vt 0.622196 0.360306
vt 0.472341 0.318131
vt 0.408630 0.371074
vt 0.440037 0.370177
vt 0.330562 0.485036
vt 0.619504 0.332489
vt 0.408630 0.371074
vt 0.622196 0.360306
vt 0.440037 0.370177
vt 0.408630 0.371074
vt 0.581816 0.362101
vt 0.622196 0.360306
vn -0.794647 0.544326 0.268786
vn -0.157691 -0.751285 0.640862
vn 0.732233 0.574498 0.365768
vn -0.621831 -0.137314 0.771020
vn 0.246880 -0.887295 0.389562
vn -0.922457 -0.360144 -0.139173
vn -0.714051 -0.458046 -0.529457
vn 0.453127 -0.756722 0.471220
vn -0.253892 0.555610 0.791730
vn 0.114242 -0.953992 -0.277216
vn 0.388036 -0.907292 -0.162015
vn -0.027650 -0.963089 0.267759
vn 0.494377 -0.864941 0.086424
vn 0.048617 0.980176 0.192071
vn 0.050038 0.720290 0.691865
vn -0.470757 0.858737 0.202383
vn 0.720481 -0.626738 0.296827
vn 0.720459 -0.617994 -0.314679
vn 0.224912 0.895287 -0.384546
vn -0.552440 0.774130 -0.309084
vn -0.130602 -0.407262 -0.903925
vn -0.440495 0.451394 -0.776021
vn 0.273948 0.533098 -0.800474
s 1
g polySurface3 polySurface2 pasted__ob_0601D8F8 group
usemtl lambert4SG
f 1/1/1 2/2/2 3/3/3
f 1/4/1 3/5/3 4/6/4
f 3/7/3 2/8/2 5/9/5
f 6/10/6 5/11/5 2/12/2
f 2/13/2 1/14/1 6/15/6
f 5/16/5 6/17/6 7/18/7
f 3/19/3 8/20/8 4/21/4
f 4/22/4 7/23/7 6/24/6
f 9/25/9 10/26/10 11/27/11
f 10/26/10 12/28/12 13/29/13
f 13/29/13 14/30/14 15/31/15
f 9/25/9 16/32/16 12/28/12
f 13/33/13 17/34/17 14/35/14
f 12/28/12 10/26/10 9/25/9
f 17/36/17 13/29/13 12/28/12
f 4/37/4 8/38/8 17/39/17
f 7/40/7 8/41/8 5/42/5
f 5/43/5 8/44/8 3/45/3
f 4/46/4 6/47/6 1/48/1
f 17/49/17 8/50/8 18/51/18
f 17/34/17 19/52/19 14/35/14
f 18/53/18 19/54/19 17/39/17
f 13/29/13 11/27/11 10/26/10
f 16/32/16 9/25/9 15/31/15
f 15/31/15 14/30/14 16/32/16
f 14/30/14 19/55/19 20/56/20
f 20/57/20 7/58/7 4/37/4
f 7/59/7 21/60/21 18/61/18
f 16/32/16 20/56/20 4/62/4
f 14/30/14 20/56/20 16/32/16
f 4/62/4 12/28/12 16/32/16
f 4/62/4 17/36/17 12/28/12
f 8/63/8 7/64/7 18/65/18
f 7/58/7 20/57/20 22/66/22
f 19/54/19 22/66/22 20/57/20
f 22/67/22 21/68/21 7/69/7
f 18/53/18 23/70/23 19/54/19
f 22/71/22 18/72/18 21/73/21
f 11/27/11 15/31/15 9/25/9
f 19/54/19 23/70/23 22/66/22
f 15/31/15 11/27/11 13/29/13
f 22/74/22 23/75/23 18/76/18
