# This file uses centimeters as units for non-parametric coordinates.

mtllib Mano2.mtl
g default
v 0.017727 0.244818 -0.672715
v -0.000316 0.309859 -0.672295
v -0.076267 0.294753 -0.670617
v 0.048779 0.327482 -0.824615
v 0.029057 0.292235 -0.886718
v 0.023182 0.311537 -0.887977
v 0.029476 0.344267 -0.735237
v -0.049831 0.294333 -0.896789
v -0.062839 0.227194 -0.671456
v -0.110255 0.199080 -0.708382
v -0.103122 0.327903 -0.729363
v -0.056964 0.197822 -0.726845
v -0.116969 0.289717 -0.830070
v 0.057591 0.309019 -0.752022
v -0.121585 0.256568 -0.780136
v -0.111095 0.334196 -0.834686
v 0.038288 0.362311 -0.823776
v -0.051929 0.267478 -0.900146
v -0.142146 0.248596 -0.840141
v -0.151378 0.213767 -0.770905
v -0.107318 0.250693 -0.843498
v -0.093471 0.189430 -0.778877
v -0.125362 0.235168 -0.844337
vt 0.604846 0.444623
vt 0.570293 0.446159
vt 0.422096 0.453838
vt 0.378328 0.777106
vt 0.423632 0.856964
vt 0.435917 0.860035
vt 0.553400 0.565177
vt 0.425935 0.569784
vt 0.392917 0.658088
vt 0.559543 0.868481
vt 0.448971 0.453070
vt 0.390614 0.565945
vt 0.355292 0.551356
vt 0.614828 0.645802
vt 0.611757 0.607409
vt 0.458953 0.588981
vt 0.658596 0.777106
vt 0.345310 0.678820
vt 0.652453 0.707999
vt 0.653221 0.787088
vt 0.399060 0.778642
vt 0.561846 0.871553
vt 0.525757 0.632749
vt 0.543418 0.605874
vt 0.435917 0.391641
vt 0.531132 0.397784
vt 0.646311 0.588213
vt 0.650150 0.174337
vt 0.607918 0.370141
vt 0.478917 0.158980
vt 0.595632 0.605106
vn 0.720457 -0.617994 0.314683
vn 0.273945 0.533102 0.800472
vn -0.440494 0.451390 0.776024
vn 0.494376 -0.864941 -0.086426
vn 0.388022 -0.907297 0.162022
vn 0.050042 0.720288 -0.691868
vn 0.224916 0.895286 0.384546
vn -0.253893 0.555615 -0.791726
vn -0.130608 -0.407259 0.903926
vn -0.714055 -0.458046 0.529452
vn -0.552438 0.774131 0.309084
vn 0.453128 -0.756723 -0.471218
vn -0.027648 -0.963088 -0.267763
vn 0.720482 -0.626739 -0.296824
vn -0.621840 -0.137310 -0.771013
vn -0.470759 0.858734 -0.202388
vn 0.048620 0.980175 -0.192074
vn 0.114243 -0.953993 0.277211
vn -0.794651 0.544319 -0.268789
vn -0.922456 -0.360144 0.139181
vn 0.732234 0.574494 -0.365772
vn 0.246883 -0.887295 -0.389560
vn -0.157690 -0.751290 -0.640857
s 1
g polySurface11 polySurface10 polySurface7 polySurface4 polySurface2 pasted__ob_0601D8F8 group
usemtl lambert6SG
f 1/1/1 2/2/2 3/3/3
f 4/4/4 5/5/5 6/6/6
f 3/7/3 2/8/2 7/9/7
f 8/10/8 6/6/6 5/5/5
f 9/11/9 1/1/1 3/3/3
f 7/9/7 2/8/2 1/12/1
f 10/13/10 9/11/9 3/3/3
f 11/14/11 3/7/3 7/9/7
f 3/7/3 11/14/11 10/15/10
f 1/1/1 10/13/10 12/16/12
f 13/17/13 14/18/14 15/19/15
f 16/20/16 13/17/13 15/19/15
f 16/20/16 11/14/11 17/21/17
f 15/19/15 11/14/11 16/20/16
f 1/1/1 9/11/9 10/13/10
f 15/19/15 10/15/10 11/14/11
f 11/14/11 7/9/7 17/21/17
f 16/20/16 17/21/17 6/6/6
f 6/6/6 8/10/8 16/20/16
f 18/22/18 5/5/5 4/4/4
f 14/18/14 7/9/7 1/12/1
f 17/21/17 7/9/7 14/18/14
f 1/12/1 12/23/12 14/18/14
f 19/24/19 20/25/20 15/26/15
f 21/27/21 12/28/12 22/29/22
f 22/29/22 12/28/12 10/30/10
f 14/18/14 12/23/12 15/19/15
f 13/17/13 4/4/4 14/18/14
f 8/10/8 18/22/18 13/17/13
f 17/21/17 14/18/14 4/4/4
f 13/17/13 16/20/16 8/10/8
f 6/6/6 17/21/17 4/4/4
f 4/4/4 13/17/13 18/22/18
f 5/5/5 18/22/18 8/10/8
f 20/25/20 10/30/10 15/26/15
f 15/26/15 12/28/12 21/27/21
f 10/30/10 20/25/20 22/29/22
f 20/25/20 19/24/19 23/31/23
f 23/31/23 22/29/22 20/25/20
f 22/29/22 23/31/23 21/27/21
f 15/26/15 21/27/21 19/24/19
f 21/27/21 23/31/23 19/24/19
